<svg width="70" height="71" viewBox="0 0 70 71" fill="none" xmlns="http://www.w3.org/2000/svg">
<path d="M43.9534 40.2622C43.9017 42.6026 42.9357 44.8296 41.2622 46.4665C39.5888 48.1033 37.3409 49.0199 35 49.0199C32.6591 49.0199 30.4112 48.1033 28.7378 46.4665C27.0643 44.8296 26.0983 42.6026 26.0466 40.2622C26.0466 28.3207 43.9556 28.3207 43.9556 40.2622H43.9534ZM35 5.90972C50.6297 6.03441 68.4053 17.055 70 37.8232H48.8316C48.8316 37.8232 46.1103 26.3497 35 26.4307C23.8897 26.4985 21.1684 37.8232 21.1684 37.8232H0C1.02594 17.4182 18.5041 5.78284 35 5.90972ZM35.1488 65.0903C23.4938 65.1232 12.6 56.3294 8.13531 42.7013H21.1706C21.1706 42.7013 23.9728 54.0478 35.0809 53.9691C46.2022 53.9013 48.8447 42.7013 48.8447 42.7013H61.8669C58.9619 57.1125 46.8059 65.0553 35.1509 65.0903H35.1488Z" fill="#669D5D"/>
</svg>
